<svg version="1.2" xmlns="http://www.w3.org/2000/svg" viewBox="0 0 34 34" width="34" height="34"><style></style><path fill-rule="evenodd" d="m17 32.8q-3.3 0-6.2-1.2-2.8-1.3-5-3.4-2.1-2.2-3.4-5-1.2-2.9-1.2-6.2 0-3.3 1.2-6.2 1.3-2.9 3.4-5 2.2-2.1 5-3.4 2.9-1.2 6.2-1.2 3.3 0 6.2 1.2 2.9 1.3 5 3.4 2.1 2.1 3.4 5 1.2 2.9 1.2 6.2 0 3.3-1.2 6.2-1.3 2.8-3.4 5-2.1 2.1-5 3.4-2.9 1.2-6.2 1.2zm0-2.1q5.7 0 9.7-4 4-4 4-9.7 0-5.7-4-9.7-3.9-4-9.7-4-5.7 0-9.7 4-4 3.9-4 9.7 0 5.7 4 9.7 4 4 9.7 4zm-1-12.6h-6.9v-2.1h6.9v-6.9h2.1v6.9h6.8v2.1h-6.8v6.8h-2.1z"/></svg>