<svg version="1.2" xmlns="http://www.w3.org/2000/svg" viewBox="0 0 40 40" width="40" height="40">
<path d="m20 38.6q-3.9 0-7.3-1.4-3.3-1.6-5.9-4-2.4-2.6-4-5.9-1.4-3.4-1.4-7.3 0-3.9 1.4-7.3 1.6-3.4 4-5.9 2.6-2.4 5.9-4 3.4-1.4 7.3-1.4 3.9 0 7.3 1.4 3.4 1.6 5.9 4 2.4 2.5 4 5.9 1.4 3.4 1.4 7.3 0 3.9-1.4 7.3-1.6 3.3-4 5.9-2.5 2.4-5.9 4-3.4 1.4-7.3 1.4zm0-2.5q6.7 0 11.4-4.7 4.7-4.7 4.7-11.4 0-6.7-4.7-11.4-4.6-4.7-11.4-4.7-6.7 0-11.4 4.7-4.7 4.6-4.7 11.4 0 6.7 4.7 11.4 4.7 4.7 11.4 4.7zm-8.9-12.1h2v-5.6q0-2.8 1.4-4.9 1.4-2.2 4-2.8v-1.4q0-0.7 0.4-1.2 0.4-0.3 1.1-0.3 0.7 0 1.1 0.3 0.4 0.5 0.4 1.2v1.4q2.6 0.6 4 2.8 1.4 2.3 1.4 5.1v5.4h2v2.7h-17.8zm7.1 7.5q-0.8-0.8-0.8-1.8h5.2q0 1-0.8 1.8-0.7 0.7-1.8 0.7-1.1 0-1.8-0.7zm6-7.5v-6.2q0-1.8-1.3-3.1-1.1-1.3-2.9-1.3-1.8 0-3.1 1.3-1.1 1.3-1.1 3.1v6.2z"/></svg>