<svg version="1.2" xmlns="http://www.w3.org/2000/svg" viewBox="0 0 960 960" width="960" height="960"><defs><linearGradient id="P" gradientUnits="userSpaceOnUse"/><linearGradient id="g1" x2="1" href="#P" gradientTransform="matrix(800,0,0,38.4,80,460.8)"><stop stop-color="#cfd5da"/><stop offset=".25" stop-color="#f5f7f8"/><stop offset=".5" stop-color="#b7c0c7"/><stop offset=".75" stop-color="#f5f7f8"/><stop offset="1" stop-color="#cfd5da"/></linearGradient><linearGradient id="g2" x2="1" href="#P" gradientTransform="matrix(40,0,0,64,100,448)"><stop stop-color="#cfd5da"/><stop offset=".25" stop-color="#f5f7f8"/><stop offset=".5" stop-color="#b7c0c7"/><stop offset=".75" stop-color="#f5f7f8"/><stop offset="1" stop-color="#cfd5da"/></linearGradient><linearGradient id="g3" x2="1" href="#P" gradientTransform="matrix(40,0,0,64,820,448)"><stop stop-color="#cfd5da"/><stop offset=".25" stop-color="#f5f7f8"/><stop offset=".5" stop-color="#b7c0c7"/><stop offset=".75" stop-color="#f5f7f8"/><stop offset="1" stop-color="#cfd5da"/></linearGradient><linearGradient id="g4" x2="1" href="#P" gradientTransform="matrix(0,204.8,-14,0,84,377.6)"><stop stop-color="#2d3136"/><stop offset=".6" stop-color="#171a1d"/><stop offset="1" stop-color="#0f1113"/></linearGradient><linearGradient id="g5" x2="1" href="#P" gradientTransform="matrix(0,230.4,-16,0,100,364.8)"><stop stop-color="#2d3136"/><stop offset=".6" stop-color="#171a1d"/><stop offset="1" stop-color="#0f1113"/></linearGradient><linearGradient id="g6" x2="1" href="#P" gradientTransform="matrix(0,256,-18,0,118,352)"><stop stop-color="#2d3136"/><stop offset=".6" stop-color="#171a1d"/><stop offset="1" stop-color="#0f1113"/></linearGradient><linearGradient id="g7" x2="1" href="#P" gradientTransform="matrix(0,204.8,-14,0,862,377.6)"><stop stop-color="#2d3136"/><stop offset=".6" stop-color="#171a1d"/><stop offset="1" stop-color="#0f1113"/></linearGradient><linearGradient id="g8" x2="1" href="#P" gradientTransform="matrix(0,230.4,-16,0,844,364.8)"><stop stop-color="#2d3136"/><stop offset=".6" stop-color="#171a1d"/><stop offset="1" stop-color="#0f1113"/></linearGradient><linearGradient id="g9" x2="1" href="#P" gradientTransform="matrix(0,256,-18,0,824,352)"><stop stop-color="#2d3136"/><stop offset=".6" stop-color="#171a1d"/><stop offset="1" stop-color="#0f1113"/></linearGradient></defs><style>.a{fill:url(#g1)}.b{fill:url(#g2)}.c{fill:url(#g3)}.d{fill:url(#g4)}.e{fill:url(#g5)}.f{fill:url(#g6)}.g{fill:url(#g7)}.h{fill:url(#g8)}.i{fill:url(#g9)}.j{fill:#8b949e}</style><path fill-rule="evenodd" class="a" d="m83 460.8h794c1.7 0 3 4.3 3 9.6v19.2c0 5.3-1.3 9.6-3 9.6h-794c-1.7 0-3-4.3-3-9.6v-19.2c0-5.3 1.3-9.6 3-9.6z"/><path fill-rule="evenodd" class="b" d="m102 448h36c1.1 0 2 2.9 2 6.4v51.2c0 3.5-0.9 6.4-2 6.4h-36c-1.1 0-2-2.9-2-6.4v-51.2c0-3.5 0.9-6.4 2-6.4z"/><path fill-rule="evenodd" class="c" d="m822 448h36c1.1 0 2 2.9 2 6.4v51.2c0 3.5-0.9 6.4-2 6.4h-36c-1.1 0-2-2.9-2-6.4v-51.2c0-3.5 0.9-6.4 2-6.4z"/><path fill-rule="evenodd" class="d" d="m86 377.6h10c1.1 0 2 2.9 2 6.4v192c0 3.5-0.9 6.4-2 6.4h-10c-1.1 0-2-2.9-2-6.4v-192c0-3.5 0.9-6.4 2-6.4z"/><path fill-rule="evenodd" class="e" d="m102 364.8h12c1.1 0 2 2.9 2 6.4v217.6c0 3.5-0.9 6.4-2 6.4h-12c-1.1 0-2-2.9-2-6.4v-217.6c0-3.5 0.9-6.4 2-6.4z"/><path fill-rule="evenodd" class="f" d="m120 352h14c1.1 0 2 2.9 2 6.4v243.2c0 3.5-0.9 6.4-2 6.4h-14c-1.1 0-2-2.9-2-6.4v-243.2c0-3.5 0.9-6.4 2-6.4z"/><path fill-rule="evenodd" class="g" d="m874 377.6h-10c-1.1 0-2 2.9-2 6.4v192c0 3.5 0.9 6.4 2 6.4h10c1.1 0 2-2.9 2-6.4v-192c0-3.5-0.9-6.4-2-6.4z"/><path fill-rule="evenodd" class="h" d="m858 364.8h-12c-1.1 0-2 2.9-2 6.4v217.6c0 3.5 0.9 6.4 2 6.4h12c1.1 0 2-2.9 2-6.4v-217.6c0-3.5-0.9-6.4-2-6.4z"/><path fill-rule="evenodd" class="i" d="m840 352h-14c-1.1 0-2 2.9-2 6.4v243.2c0 3.5 0.9 6.4 2 6.4h14c1.1 0 2-2.9 2-6.4v-243.2c0-3.5-0.9-6.4-2-6.4z"/><path fill-rule="evenodd" class="j" d="m142 428.8h6c1.1 0 2 2.9 2 6.4v89.6c0 3.5-0.9 6.4-2 6.4h-6c-1.1 0-2-2.9-2-6.4v-89.6c0-3.5 0.9-6.4 2-6.4z"/><path fill-rule="evenodd" class="j" d="m812 428.8h6c1.1 0 2 2.9 2 6.4v89.6c0 3.5-0.9 6.4-2 6.4h-6c-1.1 0-2-2.9-2-6.4v-89.6c0-3.5 0.9-6.4 2-6.4z"/><g style="opacity:.8"></g></svg>