<svg version="1.2" xmlns="http://www.w3.org/2000/svg" viewBox="0 0 40 40" width="40" height="40">
	<style>
		.s0 { fill: #adb2bf } 
	</style>
	<path id="Layer" class="s0" d="m13.8 23.8l-0.1-3.9q-1.5-0.4-2.7-1.3-1.2-1-1.8-2.4-2.3-0.3-3.9-2.1-1.6-1.7-1.6-4.1v-1.3q0-1 0.8-1.7 0.7-0.8 1.7-0.8h2.5q0-1 0.8-1.7 0.7-0.8 1.7-0.8h7.5q1.1 0 1.8 0.8 0.7 0.7 0.7 1.7h2.5q1.1 0 1.8 0.8 0.7 0.7 0.7 1.7v1.3q0 2.4-1.5 4.1-1.6 1.8-4 2.1-0.5 1.4-1.7 2.4-1.2 0.9-2.8 1.3v3.8h3.8q0.5 0 0.9 0.4 0.3 0.4 0.3 0.9 0 0.5-0.3 0.9-0.4 0.3-0.9 0.3h-10q-0.5 0-0.9-0.3-0.4-0.4-0.4-0.9 0-0.5 0.4-0.9 0.4-0.4 0.9-0.4zm7.5-10.2q1.1-0.4 1.8-1.4 0.7-0.9 0.7-2.1v-1.3h-2.5zm-12.5 0v-4.7h-2.5v1.2q0 1.2 0.7 2.2 0.7 0.9 1.8 1.3z"/>
</svg>