<svg version="1.2" xmlns="http://www.w3.org/2000/svg" viewBox="0 0 334 300" width="334" height="300"><defs><linearGradient id="P" gradientUnits="userSpaceOnUse"/><linearGradient id="g1" x2="1" href="#P" gradientTransform="matrix(120,0,0,12,142,185)"><stop stop-color="#cfd5da"/><stop offset=".25" stop-color="#f5f7f8"/><stop offset=".5" stop-color="#b7c0c7"/><stop offset=".75" stop-color="#f5f7f8"/><stop offset="1" stop-color="#cfd5da"/></linearGradient><linearGradient id="g2" x2="1" href="#P" gradientTransform="matrix(0,48,-12,0,159,167)"><stop stop-color="#2d3136"/><stop offset=".6" stop-color="#171a1d"/><stop offset="1" stop-color="#0f1113"/></linearGradient><linearGradient id="g3" x2="1" href="#P" gradientTransform="matrix(0,64,-10,0,145,159)"><stop stop-color="#2d3136"/><stop offset=".6" stop-color="#171a1d"/><stop offset="1" stop-color="#0f1113"/></linearGradient><linearGradient id="g4" x2="1" href="#P" gradientTransform="matrix(0,48,-12,0,235,167)"><stop stop-color="#2d3136"/><stop offset=".6" stop-color="#171a1d"/><stop offset="1" stop-color="#0f1113"/></linearGradient><linearGradient id="g5" x2="1" href="#P" gradientTransform="matrix(0,64,-10,0,249,159)"><stop stop-color="#2d3136"/><stop offset=".6" stop-color="#171a1d"/><stop offset="1" stop-color="#0f1113"/></linearGradient><linearGradient id="g6" x2="1" href="#P" gradientTransform="matrix(120,0,0,12,71,85)"><stop stop-color="#cfd5da"/><stop offset=".25" stop-color="#f5f7f8"/><stop offset=".5" stop-color="#b7c0c7"/><stop offset=".75" stop-color="#f5f7f8"/><stop offset="1" stop-color="#cfd5da"/></linearGradient><linearGradient id="g7" x2="1" href="#P" gradientTransform="matrix(0,48,-12,0,88,67)"><stop stop-color="#2d3136"/><stop offset=".6" stop-color="#171a1d"/><stop offset="1" stop-color="#0f1113"/></linearGradient><linearGradient id="g8" x2="1" href="#P" gradientTransform="matrix(0,64,-10,0,74,59)"><stop stop-color="#2d3136"/><stop offset=".6" stop-color="#171a1d"/><stop offset="1" stop-color="#0f1113"/></linearGradient><linearGradient id="g9" x2="1" href="#P" gradientTransform="matrix(0,48,-12,0,164,67)"><stop stop-color="#2d3136"/><stop offset=".6" stop-color="#171a1d"/><stop offset="1" stop-color="#0f1113"/></linearGradient><linearGradient id="g10" x2="1" href="#P" gradientTransform="matrix(0,64,-10,0,178,59)"><stop stop-color="#2d3136"/><stop offset=".6" stop-color="#171a1d"/><stop offset="1" stop-color="#0f1113"/></linearGradient></defs><style>.a{fill:url(#g1)}.b{fill:url(#g2)}.c{fill:url(#g3)}.d{fill:url(#g4)}.e{fill:url(#g5)}.f{fill:url(#g6)}.g{fill:url(#g7)}.h{fill:url(#g8)}.i{fill:url(#g9)}.j{fill:url(#g10)}</style><path fill-rule="evenodd" class="a" d="m145 185h114c1.7 0 3 1.3 3 3v6c0 1.7-1.3 3-3 3h-114c-1.7 0-3-1.3-3-3v-6c0-1.7 1.3-3 3-3z"/><path fill-rule="evenodd" class="b" d="m161 167h8c1.1 0 2 0.9 2 2v44c0 1.1-0.9 2-2 2h-8c-1.1 0-2-0.9-2-2v-44c0-1.1 0.9-2 2-2z"/><path fill-rule="evenodd" class="c" d="m147 159h6c1.1 0 2 0.9 2 2v60c0 1.1-0.9 2-2 2h-6c-1.1 0-2-0.9-2-2v-60c0-1.1 0.9-2 2-2z"/><path fill-rule="evenodd" class="d" d="m237 167h8c1.1 0 2 0.9 2 2v44c0 1.1-0.9 2-2 2h-8c-1.1 0-2-0.9-2-2v-44c0-1.1 0.9-2 2-2z"/><path fill-rule="evenodd" class="e" d="m251 159h6c1.1 0 2 0.9 2 2v60c0 1.1-0.9 2-2 2h-6c-1.1 0-2-0.9-2-2v-60c0-1.1 0.9-2 2-2z"/><path fill-rule="evenodd" class="f" d="m74 85h114c1.7 0 3 1.3 3 3v6c0 1.7-1.3 3-3 3h-114c-1.7 0-3-1.3-3-3v-6c0-1.7 1.3-3 3-3z"/><path fill-rule="evenodd" class="g" d="m90 67h8c1.1 0 2 0.9 2 2v44c0 1.1-0.9 2-2 2h-8c-1.1 0-2-0.9-2-2v-44c0-1.1 0.9-2 2-2z"/><path fill-rule="evenodd" class="h" d="m76 59h6c1.1 0 2 0.9 2 2v60c0 1.1-0.9 2-2 2h-6c-1.1 0-2-0.9-2-2v-60c0-1.1 0.9-2 2-2z"/><path fill-rule="evenodd" class="i" d="m166 67h8c1.1 0 2 0.9 2 2v44c0 1.1-0.9 2-2 2h-8c-1.1 0-2-0.9-2-2v-44c0-1.1 0.9-2 2-2z"/><path fill-rule="evenodd" class="j" d="m180 59h6c1.1 0 2 0.9 2 2v60c0 1.1-0.9 2-2 2h-6c-1.1 0-2-0.9-2-2v-60c0-1.1 0.9-2 2-2z"/></svg>