<svg version="1.2" xmlns="http://www.w3.org/2000/svg" viewBox="0 0 166 166" width="166" height="166"><defs><linearGradient id="P" gradientUnits="userSpaceOnUse"/><linearGradient id="g1" x2="1" href="#P" gradientTransform="matrix(120,0,0,12,39,119)"><stop stop-color="#FFA500"/><stop offset=".25" stop-color="#FFA500"/><stop offset=".5" stop-color="#FFA500"/><stop offset=".75" stop-color="#FFA500"/><stop offset="1" stop-color="#FFA500"/></linearGradient><linearGradient id="g2" x2="1" href="#P" gradientTransform="matrix(0,48,-12,0,45,101)"><stop stop-color="#333333"/><stop offset=".6" stop-color="#333333"/><stop offset="1" stop-color="#333333"/></linearGradient><linearGradient id="g3" x2="1" href="#P" gradientTransform="matrix(0,64,-10,0,58,92)"><stop stop-color="#333333"/><stop offset=".6" stop-color="#333333"/><stop offset="1" stop-color="#333333"/></linearGradient><linearGradient id="g4" x2="1" href="#P" gradientTransform="matrix(0,48,-12,0,141,101)"><stop stop-color="#333333"/><stop offset=".6" stop-color="#333333"/><stop offset="1" stop-color="#333333"/></linearGradient><linearGradient id="g5" x2="1" href="#P" gradientTransform="matrix(0,64,-10,0,130,92)"><stop stop-color="#333333"/><stop offset=".6" stop-color="#333333"/><stop offset="1" stop-color="#333333"/></linearGradient><linearGradient id="g6" x2="1" href="#P" gradientTransform="matrix(120,0,0,12,8,37)"><stop stop-color="#FFA500"/><stop offset=".25" stop-color="#FFA500"/><stop offset=".5" stop-color="#FFA500"/><stop offset=".75" stop-color="#FFA500"/><stop offset="1" stop-color="#FFA500"/></linearGradient><linearGradient id="g7" x2="1" href="#P" gradientTransform="matrix(0,48,-12,0,14,19)"><stop stop-color="#333333"/><stop offset=".6" stop-color="#333333"/><stop offset="1" stop-color="#333333"/></linearGradient><linearGradient id="g8" x2="1" href="#P" gradientTransform="matrix(0,64,-10,0,27,10)"><stop stop-color="#333333"/><stop offset=".6" stop-color="#333333"/><stop offset="1" stop-color="#333333"/></linearGradient><linearGradient id="g9" x2="1" href="#P" gradientTransform="matrix(0,48,-12,0,110,19)"><stop stop-color="#333333"/><stop offset=".6" stop-color="#333333"/><stop offset="1" stop-color="#333333"/></linearGradient><linearGradient id="g10" x2="1" href="#P" gradientTransform="matrix(0,64,-10,0,99,10)"><stop stop-color="#333333"/><stop offset=".6" stop-color="#333333"/><stop offset="1" stop-color="#333333"/></linearGradient></defs><style>.a{fill:url(#g1)}.b{fill:url(#g2)}.c{fill:url(#g3)}.d{fill:url(#g4)}.e{fill:url(#g5)}.f{fill:url(#g6)}.g{fill:url(#g7)}.h{fill:url(#g8)}.i{fill:url(#g9)}.j{fill:url(#g10)}</style><path fill-rule="evenodd" class="a" d="m42 119h114c1.7 0 3 1.3 3 3v6c0 1.7-1.3 3-3 3h-114c-1.7 0-3-1.3-3-3v-6c0-1.7 1.3-3 3-3z"/><path fill-rule="evenodd" class="b" d="m47 101h8c1.1 0 2 0.9 2 2v44c0 1.1-0.9 2-2 2h-8c-1.1 0-2-0.9-2-2v-44c0-1.1 0.9-2 2-2z"/><path fill-rule="evenodd" class="c" d="m60 92h6c1.1 0 2 0.9 2 2v60c0 1.1-0.9 2-2 2h-6c-1.1 0-2-0.9-2-2v-60c0-1.1 0.9-2 2-2z"/><path fill-rule="evenodd" class="d" d="m143 101h8c1.1 0 2 0.9 2 2v44c0 1.1-0.9 2-2 2h-8c-1.1 0-2-0.9-2-2v-44c0-1.1 0.9-2 2-2z"/><path fill-rule="evenodd" class="e" d="m132 92h6c1.1 0 2 0.9 2 2v60c0 1.1-0.9 2-2 2h-6c-1.1 0-2-0.9-2-2v-60c0-1.1 0.9-2 2-2z"/><path fill-rule="evenodd" class="f" d="m11 37h114c1.7 0 3 1.3 3 3v6c0 1.7-1.3 3-3 3h-114c-1.7 0-3-1.3-3-3v-6c0-1.7 1.3-3 3-3z"/><path fill-rule="evenodd" class="g" d="m16 19h8c1.1 0 2 0.9 2 2v44c0 1.1-0.9 2-2 2h-8c-1.1 0-2-0.9-2-2v-44c0-1.1 0.9-2 2-2z"/><path fill-rule="evenodd" class="h" d="m29 10h6c1.1 0 2 0.9 2 2v60c0 1.1-0.9 2-2 2h-6c-1.1 0-2-0.9-2-2v-60c0-1.1 0.9-2 2-2z"/><path fill-rule="evenodd" class="i" d="m112 19h8c1.1 0 2 0.9 2 2v44c0 1.1-0.9 2-2 2h-8c-1.1 0-2-0.9-2-2v-44c0-1.1 0.9-2 2-2z"/><path fill-rule="evenodd" class="j" d="m101 10h6c1.1 0 2 0.9 2 2v60c0 1.1-0.9 2-2 2h-6c-1.1 0-2-0.9-2-2v-60c0-1.1 0.9-2 2-2z"/></svg>