<svg version="1.2" xmlns="http://www.w3.org/2000/svg" viewBox="0 0 40 40" width="40" height="40">
	<style>
		.s0 { fill: #adb2bf } 
	</style>
	<path id="Layer" class="s0" d="m26.2 30.9c0 0.8 0.7 1.5 1.5 1.5h7.8c0.8 0 1.5-0.7 1.5-1.5 0-0.9-0.7-1.5-1.5-1.5h-7.8c-0.8 0-1.5 0.6-1.5 1.5zm-12.4-10.9c0-0.8-0.7-1.5-1.5-1.5h-7.8c-0.8 0-1.5 0.7-1.5 1.5 0 0.8 0.7 1.5 1.5 1.5h7.8c0.8 0 1.5-0.7 1.5-1.5zm12.4-10.8c0 0.8 0.7 1.5 1.5 1.5h7.8c0.8 0 1.5-0.7 1.5-1.5 0-0.9-0.7-1.5-1.5-1.5h-7.8c-0.8 0-1.5 0.6-1.5 1.5zm-3.1 3v-6.2c0-0.8-0.7-1.5-1.5-1.5-0.9 0-1.5 0.7-1.5 1.5v1.6h-15.6c-0.8 0-1.5 0.7-1.5 1.5 0 0.9 0.7 1.5 1.5 1.5h15.6v1.6c0 0.9 0.6 1.5 1.5 1.5 0.8 0 1.5-0.6 1.5-1.5zm0 21.8v-6.2c0-0.9-0.7-1.5-1.5-1.5-0.9 0-1.5 0.6-1.5 1.5v1.6h-15.6c-0.8 0-1.5 0.6-1.5 1.5 0 0.8 0.7 1.5 1.5 1.5h15.6v1.6c0 0.8 0.6 1.5 1.5 1.5 0.8 0 1.5-0.7 1.5-1.5zm-3.1-10.9v-1.6h15.5c0.8 0 1.5-0.7 1.5-1.5 0-0.8-0.7-1.5-1.5-1.5h-15.6v-1.6c0-0.8-0.6-1.5-1.5-1.5-0.8 0-1.5 0.7-1.5 1.5v6.2c0 0.8 0.7 1.5 1.5 1.5 0.9 0 1.5-0.7 1.5-1.5z"/>
</svg>