<svg xmlns="http://www.w3.org/2000/svg" height="40" viewBox="0 -960 960 960" width="40"><path d="M479.813-150.256q78.982 0 134.456-55.288 55.475-55.287 55.475-134.269t-55.288-134.456q-55.287-55.475-134.269-55.475t-134.456 55.288q-55.475 55.287-55.475 134.269t55.288 134.456q55.287 55.475 134.269 55.475Zm-124.3-394.588q23.45-14.83 50.212-23.351 26.762-8.521 55.711-10.881L360.975-778.972H238.513l117 234.128Zm248.974 0 117.59-234.128H599.025l-85.077 170.051 16.974 34.204q20.026 4.411 38.398 11.744 18.372 7.333 35.167 18.129ZM280.796-193.256q-12.033-19.66-17.76-43.483-5.726-23.822-3.418-50.565-9.231-37.128-6.347-74.179 2.884-37.051 17.14-72.052 0-15.001 5.192-28.463 5.193-13.463 14.425-24.233-35.333 6.589-59.666 32.037-24.332 25.448-26.64 60.729-22.309 35.28-15.863 76.627 6.447 41.346 39.472 70.116 0 22.566 15.578 38.016t37.887 15.45Zm398.408 0q55.334-6.461 92.937-47.808Q809.744-282.41 809.744-340q0-57.59-37.603-98.936-37.603-41.347-92.937-48.064-2.308 0-4.616.32-2.308.321-4.616.449 23.488 30.769 36.757 67.692 13.27 36.924 13.27 78.539t-13.27 78.539q-13.269 36.923-36.757 67.436 2.308.384 4.616.576 2.308.193 4.616.193ZM480-100.001q-39.231 0-74.577-11.693-35.346-11.692-64.807-32.846-9.77 2.769-20.116 3.654-10.346.885-21.5.885-82.538 0-140.768-58.231-58.231-58.23-58.231-140.768 0-80.076 54.539-137.076 54.538-57 133.384-61.307 4.231 0 8.077.577 3.847.577 7.693 1.346L156.926-829.227h235.381L480-653.841l87.693-175.386h235.381L657.691-537.845q3.461-.769 7.116-1.154 3.654-.384 7.5-.384 79.23 4.923 133.461 61.922 54.231 57 54.231 137.461 0 83.538-58.231 141.768-58.23 58.231-141.768 58.231-10.539 0-21-.885-10.462-.885-20.231-3.654-29.462 20.769-64.5 32.654-35.038 11.885-74.269 11.885ZM480-340ZM355.513-544.844l-117-234.128 117 234.128Zm248.974 0 117.59-234.128-117.59 234.128ZM411.77-239.231l25.692-84.077-68.231-48.769h84.077L480-460.769l26.692 88.692h84.077l-68.231 48.769 25.692 84.077L480-291l-68.23 51.769Z"/></svg>