<svg version="1.2" xmlns="http://www.w3.org/2000/svg" viewBox="0 0 100 53" width="100" height="53"><style>.a{fill:#555}.b{fill:#888}.c{fill:#ccc}.d{fill:#ffd700}.e{fill:#ffc107}.f{fill:#ffee58}</style><path fill-rule="evenodd" class="a" d="m24 18h8v20h-8z"/><path fill-rule="evenodd" class="b" d="m32 15h6v26h-6z"/><path fill-rule="evenodd" class="c" d="m40 24h18c1.1 0 2 0.9 2 2v4c0 1.1-0.9 2-2 2h-18c-1.1 0-2-0.9-2-2v-4c0-1.1 0.9-2 2-2z"/><path fill-rule="evenodd" class="b" d="m60 15h6v26h-6z"/><path fill-rule="evenodd" class="a" d="m66 18h8v20h-8z"/><path fill-rule="evenodd" class="d" d="m12 18l2 6 6 1-5 4 1 6-4-3-4 3 1-6-5-4 6-1z"/><path fill-rule="evenodd" class="d" d="m88 17l2 6 6 1-5 4 1 6-4-3-4 3 1-6-5-4 6-1z"/><path fill-rule="evenodd" class="e" d="m50 3l1 3 3 1-2 2 1 3-3-2-3 2 1-3-2-2 3-1z"/><path fill-rule="evenodd" class="f" d="m50 41l1 3 3 1-2 2 1 3-3-2-3 2 1-3-2-2 3-1z"/></svg>