<svg xmlns="http://www.w3.org/2000/svg" height="40" viewBox="0 -960 960 960" width="40"><path d="m390.923-420.462 33.744-109.126-88.487-66.976h108.979L480-708.102l34.174 111.538H623.82l-88.436 66.976 33.077 109.126L479.999-488l-89.076 67.538ZM261.899-70.772V-354.77q-41.385-42-61.641-95.153Q180.001-503.077 180.001-560q0-126.358 86.821-213.178 86.82-86.821 213.178-86.821t213.178 86.821q86.821 86.82 86.821 213.178 0 56.923-20.257 110.077-20.256 53.153-61.641 95.153v283.998L480-140.37 261.899-70.771ZM479.97-310.255q104.492 0 177.133-72.611t72.641-177.103q0-104.492-72.611-177.133T480.03-809.744q-104.492 0-177.133 72.611T230.256-560.03q0 104.492 72.611 177.133t177.103 72.641ZM312.154-141.692 480-191.385l167.846 49.693v-171.489q-36.795 26.769-80.128 39.974-43.333 13.206-87.718 13.206-44.385 0-87.718-13.206-43.333-13.205-80.128-39.974v171.489ZM480-227.642Z"/></svg>