<svg version="1.2" xmlns="http://www.w3.org/2000/svg" viewBox="0 0 100 100" width="100" height="100">
<style>.a{fill:#6E6E6E}.b{fill:#404040}.c{fill:#FFA500}.d{fill:#505050}.e{fill:#dd9700}.f{fill:#3c3c3c}.g{fill:#ffffff}</style>
<path class="a" d="m52.9 9.6c2.7 0.4 5.3 0.8 7.9 1.3 1.9 0.4 3.6 1.2 5.4 1.8 0.6 0.2 0.9 0.4 0.6 1.2q-1.6 4.6-0.2 9.3c0 0.1 0 0.3-0.1 0.5-5.5-3.2-11.3-4.9-17.6-4.6-6.4 0.3-12.1 2.4-17.2 6.1 6.2 6.2 12.3 12.3 18.7 18.7-2.3 0-4.3 0-6.4 0q-0.1-1.8-0.3-3.6c-0.1-2.1-1.8-3.8-3.9-4-2.1-0.1-4.1-0.2-6.1-0.1-1.1 0-2.1 0.4-3.3 0.6-1.6-1.6-3.3-3.4-5.1-5.2-9.4 12.5-7.5 28.6 1.1 38.7 10.9 12.7 29.4 14.6 42.3 4.8-6.1-6.2-12.3-12.3-18.6-18.6 2.2 0 4.2 0 6.2 0 0.1 1.2 0.3 2.5 0.3 3.7 0.1 1.8 2.1 3.8 3.8 3.9 1.9 0 3.8 0.2 5.8 0.1 1.2 0 2.4-0.3 3.9-0.5 1.5 1.5 3.2 3.3 5.1 5.1 7.7-11.4 8.1-23 1.5-35 0.5 0.1 0.9 0.1 1.3 0.2q4.1 1 8.1-0.3c0.9-0.3 1.3-0.3 1.7 0.7 1.2 3 2.1 6 2.6 9.1 0.6 3.7 0.6 7.3 0.2 11q-0.4 4.9-2.1 9.6c-1.5 4-3.4 7.9-6.3 11.2-1.6 1.9-3.3 3.9-5.2 5.6-3.5 3.1-7.5 5.4-11.9 7.2-3 1.2-6.3 2-9.5 2.5-0.8 0.1-1.5 0.1-2.5 0.2-1.7-0.3-3.3-0.5-4.9-0.8-9-1.9-16.5-6.4-22.5-13.3-6.1-7.1-9.3-15.3-9.9-24.6-0.2-4.1 0.3-8.1 1.3-12 2-7.7 5.9-14.2 11.7-19.6 5.1-4.7 10.9-8 17.6-9.6 2.1-0.5 4.3-0.9 6.5-1.3z"/>
<path class="b" d="m52.8 9.6c-2.1 0.4-4.3 0.8-6.4 1.3-6.7 1.6-12.5 4.9-17.6 9.6-5.8 5.4-9.7 11.9-11.7 19.6-1 3.9-1.5 7.9-1.3 12 0.6 9.3 3.8 17.5 9.9 24.6 6 6.9 13.5 11.4 22.5 13.3 1.6 0.3 3.2 0.5 4.9 0.8-5.8 0.3-11.5-0.3-16.9-2.3-4.4-1.7-8.4-3.9-12-7-4.3-3.6-7.8-7.8-10.3-12.8-1.8-3.6-3-7.4-3.8-11.4-0.7-3.6-0.7-7.2-0.5-10.7 0.3-4.7 1.6-9.2 3.6-13.4 1.9-4.1 4.4-7.8 7.6-11.1 3-3.2 6.5-5.8 10.4-7.9 3.5-1.9 7.2-3.2 11.1-4 3.5-0.7 7-0.7 10.5-0.6z"/>
<path class="c" d="m81.8 6.5c4.8-0.1 8.1 2.2 10.6 6.1 1.5 2.5 1.9 5.4 1.5 8.2-0.6 3.9-2.6 7-6.1 9-1.8 1-3.7 1.7-5.9 1.6-0.4-0.2-0.6-0.4-0.9-0.5-1.5-0.8-3.2-1.4-4.5-2.4-3.7-3.2-5.2-7.3-4.1-12.1 1-4.8 3.9-7.9 8.6-9.4 0.3-0.1 0.6-0.3 0.8-0.5zm-4.4 7.7c-0.6 0.4-1.1 0.8-1.8 1.4 1.4 1.2 2.5 2.3 3.7 3.4q-1.8 1.6-3.4 3.1c0.9 0.9 1.6 1.6 2.4 2.4 1.1-1.1 2.1-2.2 3.4-3.5q1.6 1.8 3 3.4c0.8-0.8 1.5-1.5 2.3-2.3-1.1-1-2.2-2-3.5-3.2q1.9-1.7 3.4-3.1c-0.8-0.8-1.5-1.6-2.3-2.5-1.1 1.1-2.2 2.2-3.4 3.4q-1.5-1.6-3-3.3c-0.3 0.3-0.5 0.5-0.8 0.8z"/>
<path class="d" d="m31.4 42.4q0-0.9 0-1.8c0.1-0.8 0.5-1.3 1.4-1.3q3.3-0.1 6.7 0c0.9 0 1.3 0.4 1.3 1.5 0 2 0 4 0 6.3 0 2.2 0 4.2 0 6.2q0 3.1 0 6.1c0 1.4-0.3 1.7-1.6 1.7q-2.9 0-5.9 0c-1.5 0-1.8-0.3-1.9-1.8 0-0.4 0-0.7 0-1.3 0-5.3 0-10.5 0-15.6z"/>
<path class="d" d="m59.5 47.1q0.1-3.1 0.1-6.2c0-1.3 0.3-1.6 1.6-1.6q2.9 0 5.9 0c1.5 0 1.8 0.3 1.8 1.8 0 0.4 0 0.7 0.1 1.3 0 5.3 0 10.5 0 15.6q0 0.9-0.1 1.8c0 0.8-0.4 1.3-1.3 1.3q-3.3 0.1-6.7 0c-0.9 0-1.3-0.4-1.3-1.5 0-2 0-4.1 0-6.3 0-2.2 0-4.2-0.1-6.2z"/>
<path class="c" d="m59.5 47.1c0.1 2 0.1 4 0.1 6.1-6.2 0.1-12.4 0.1-18.7 0.1-0.1-2-0.1-4-0.1-6.1 6.2-0.1 12.4-0.1 18.7-0.1z"/>
<path class="e" d="m81.8 6.5c-0.2 0.2-0.5 0.4-0.8 0.5-4.7 1.5-7.6 4.6-8.6 9.4-1.1 4.8 0.4 8.9 4.1 12.1 1.3 1 3 1.6 4.5 2.4 0.3 0.1 0.5 0.3 0.8 0.4-4.5 0.7-9.6-2.6-11.5-6.5-2.6-5.1-1.5-11.6 2.7-15.3 2.5-2.1 5.3-3.3 8.8-3z"/>
<path class="f" d="m31.3 42.4c0.1 5.1 0.1 10.3 0.1 15.5q-0.8 0.2-1.7 0.1c-0.9 0-1.4-0.5-1.4-1.3q0-6.5 0-13c0-0.8 0.5-1.3 1.4-1.3 0.5 0 1 0 1.6 0z"/>
<path class="f" d="m69 58c0-5.1 0-10.3 0-15.5q0.8-0.2 1.7-0.1c0.9 0 1.4 0.5 1.4 1.3q0 6.5 0 13c0 0.8-0.6 1.3-1.4 1.3-0.5 0-1 0-1.7 0z"/>
<path class="g" d="m77.4 14.1c0.3-0.2 0.5-0.4 0.8-0.7q1.5 1.7 3 3.3c1.2-1.2 2.3-2.3 3.4-3.4 0.8 0.9 1.5 1.7 2.3 2.5q-1.5 1.4-3.4 3.1c1.3 1.2 2.4 2.2 3.5 3.2-0.8 0.8-1.5 1.5-2.3 2.3q-1.4-1.6-3-3.4c-1.3 1.3-2.3 2.4-3.4 3.5-0.8-0.8-1.5-1.5-2.4-2.4q1.6-1.5 3.4-3.1c-1.2-1.1-2.3-2.2-3.7-3.4 0.7-0.6 1.2-1 1.8-1.5z"/></svg>