<svg version="1.2" xmlns="http://www.w3.org/2000/svg" viewBox="0 0 34 34" width="34" height="34"><style>.a{fill:#3d4754}</style><path class="a" d="m21.3 32.2h-8.6c-7.6 0-10.9-3.3-10.9-11v-8.5c0-7.6 3.3-10.9 10.9-10.9h7.1c0.6 0 1.1 0.5 1.1 1 0 0.6-0.5 1.1-1.1 1.1h-7.1c-6.5 0-8.8 2.3-8.8 8.8v8.5c0 6.6 2.3 8.9 8.8 8.9h8.5c6.6 0 8.9-2.3 8.9-8.9v-7c0-0.6 0.5-1.1 1.1-1.1 0.5 0 1 0.5 1 1.1v7c0 7.7-3.3 11-11 11z"/><path fill-rule="evenodd" class="a" d="m31.2 15.2h-5.7c-4.8 0-6.7-1.9-6.7-6.7v-5.7c0-0.4 0.2-0.8 0.6-0.9 0.4-0.2 0.9-0.1 1.2 0.2l11.3 11.3c0.3 0.3 0.4 0.8 0.2 1.2-0.1 0.4-0.5 0.6-0.9 0.6zm-10.3-9.8v3.1c0 3.7 0.9 4.6 4.6 4.6h3.1z"/><path class="a" d="m18.4 19.5h-8.5c-0.6 0-1-0.5-1-1.1 0-0.6 0.4-1 1-1h8.5c0.6 0 1.1 0.4 1.1 1 0 0.6-0.5 1.1-1.1 1.1z"/><path class="a" d="m15.6 25.1h-5.7c-0.6 0-1-0.4-1-1 0-0.6 0.4-1.1 1-1.1h5.7c0.6 0 1 0.5 1 1.1 0 0.6-0.4 1-1 1z"/></svg>