<svg xmlns="http://www.w3.org/2000/svg" height="40" viewBox="0 -960 960 960" width="40"><path d="M202.898-341.283q-17.333-32.949-25.115-67.089-7.782-34.141-7.782-69.628 0-128.282 90.923-219.602 90.922-91.32 219.076-91.32h48.822l-81.847-81.847 33.897-33.897 140.871 140.871-140.871 140.614-34.307-34.306 81.18-81.18H480q-107.616 0-183.68 76.359Q220.256-585.949 220.256-478q0 26.333 5.218 51.679 5.217 25.347 14.166 48.295l-36.742 36.743Zm275.41 287.436L337.437-194.718l140.871-140.614 33.64 33.64-81.591 81.847H480q107.616 0 183.68-76.36 76.064-76.359 76.064-184.308 0-26.333-4.884-51.679-4.885-25.346-14.91-48.295l36.742-36.742q17.077 32.948 25.192 67.089 8.115 34.14 8.115 69.627 0 128.282-90.923 219.602Q608.154-169.59 480-169.59h-49.643l81.591 81.846-33.64 33.897Z"/></svg>