<svg version="1.2" xmlns="http://www.w3.org/2000/svg" viewBox="0 0 40 40" width="40" height="40"><style></style><path fill-rule="evenodd" d="m15.9 38.6l-0.8-5.9q-1-0.3-2-0.9-1.1-0.6-1.9-1.3l-5.5 2.5-4.1-7.3 4.9-3.6q-0.1-0.5-0.1-1 0-0.6 0-1.1 0-0.5 0-1 0-0.6 0.1-1.1l-4.9-3.7 4.1-7.1 5.5 2.4q0.9-0.7 1.9-1.3 1-0.6 1.9-0.9l0.9-5.9h8.2l0.8 5.9q1.1 0.4 2 0.9 1 0.6 1.8 1.3l5.6-2.4 4.1 7.1-5 3.7q0.1 0.5 0.1 1.1 0.1 0.5 0.1 1 0 0.5-0.1 1 0 0.5-0.1 1.1l4.9 3.6-4.1 7.3-5.5-2.5q-0.9 0.7-1.8 1.3-1 0.6-2 0.9l-0.8 5.9zm2-2.4h4.1l0.7-5.4q1.6-0.4 2.9-1.2 1.3-0.7 2.5-1.9l5 2.1 2-3.4-4.4-3.3q0.2-0.8 0.3-1.6 0.1-0.7 0.1-1.5 0-0.8-0.1-1.5-0.1-0.8-0.3-1.6l4.4-3.3-1.9-3.4-5.1 2.1q-1-1.1-2.5-2-1.4-0.8-2.9-1.1l-0.6-5.4h-4.1l-0.7 5.4q-1.6 0.3-2.9 1.1-1.4 0.8-2.5 2l-5.1-2.1-1.9 3.4 4.4 3.3q-0.2 0.7-0.3 1.5-0.1 0.8-0.1 1.6 0 0.8 0.1 1.6 0.1 0.7 0.3 1.5l-4.4 3.3 1.9 3.4 5.1-2.1q1.1 1.2 2.5 1.9 1.3 0.8 2.9 1.2zm-2-12.2q-1.6-1.6-1.6-4 0-2.3 1.6-4 1.7-1.6 4-1.6 2.4 0 4 1.6 1.7 1.7 1.7 4 0 2.4-1.7 4-1.6 1.7-4 1.7-2.3 0-4-1.7z"/></svg>