<?xml version="1.0" encoding="UTF-8" standalone="no"?>
<!DOCTYPE svg PUBLIC "-//W3C//DTD SVG 1.1//EN" "http://www.w3.org/Graphics/SVG/1.1/DTD/svg11.dtd">
<svg xmlns="http://www.w3.org/2000/svg" version="1.1" viewBox="0 0 256 256">
<g stroke-width="2.00" fill="none" stroke-linecap="butt">
<path stroke="#88e08f" vector-effect="non-scaling-stroke" d="
  M 220.46 144.25
  C 219.63 145.00 211.59 141.41 209.75 140.54"
/>
<path stroke="#808080" vector-effect="non-scaling-stroke" d="
  M 209.75 140.54
  C 212.99 137.40 218.11 133.20 219.52 129.48
  C 221.56 124.13 218.66 120.73 214.68 116.83
  Q 208.67 110.91 202.80 104.76
  A 1.01 1.00 45.6 0 1 202.81 103.36
  Q 209.13 96.98 215.47 90.64
  C 221.79 84.31 221.10 79.70 214.79 73.43
  Q 207.21 65.88 199.71 58.25"
/>
<path stroke="#b8b7b7" vector-effect="non-scaling-stroke" d="
  M 199.71 58.25
  L 214.97 42.75
  A 1.00 1.00 0.0 0 0 214.96 41.34
  L 197.09 23.47
  A 1.00 0.99 -45.6 0 0 195.66 23.49
  Q 188.22 31.36 179.85 38.63"
/>
<path stroke="#808080" vector-effect="non-scaling-stroke" d="
  M 179.85 38.63
  Q 172.50 30.98 165.05 23.71
  C 160.30 19.09 155.09 17.86 149.99 22.74
  Q 145.49 27.05 135.98 36.63
  A 1.01 1.00 -45.2 0 1 134.56 36.64
  Q 127.43 29.53 120.27 22.50
  C 110.88 13.26 101.24 27.25 95.44 33.23
  C 90.92 37.89 90.16 43.23 94.94 48.07
  Q 113.83 67.18 133.09 85.96"
/>
<path stroke="#b8b7b7" vector-effect="non-scaling-stroke" d="
  M 133.09 85.96
  Q 131.14 88.56 124.98 94.73
  Q 105.49 114.27 85.59 133.80"
/>
<path stroke="#808080" vector-effect="non-scaling-stroke" d="
  M 85.59 133.80
  Q 66.13 114.16 46.91 95.07
  C 37.99 86.20 27.47 101.01 22.00 106.73
  C 16.99 111.97 18.18 116.72 23.00 121.76
  Q 29.49 128.54 36.29 135.08
  A 1.00 0.99 -45.2 0 1 36.29 136.51
  Q 29.48 143.21 22.63 150.27
  C 17.06 156.01 18.51 161.18 23.95 166.51
  Q 31.32 173.73 39.10 181.44"
/>
<path stroke="#b8b7b7" vector-effect="non-scaling-stroke" d="
  M 39.10 181.44
  Q 33.03 189.33 25.89 195.79
  Q 24.07 197.44 25.69 199.06
  L 42.55 215.89
  A 1.00 1.00 0.0 0 0 43.97 215.89
  L 58.11 201.79
  A 1.04 1.01 -66.5 0 1 58.82 201.50
  L 59.21 201.50"
/>
<path stroke="#808080" vector-effect="non-scaling-stroke" d="
  M 59.21 201.50
  Q 66.67 209.44 74.49 217.00
  C 80.92 223.22 86.08 220.13 91.58 214.54
  Q 97.23 208.80 103.05 203.20
  A 1.01 1.00 46.0 0 1 104.47 203.23
  Q 116.87 216.20 120.32 218.94
  C 128.26 225.24 136.81 213.65 141.75 208.71"
/>
<path stroke="#88e08f" vector-effect="non-scaling-stroke" d="
  M 141.75 208.71
  Q 144.37 213.77 145.25 219.44"
/>
<path stroke="#b8b7b7" vector-effect="non-scaling-stroke" d="
  M 152.72 105.61
  L 105.00 153.35"
/>
<path stroke="#393838" vector-effect="non-scaling-stroke" d="
  M 105.00 153.35
  Q 94.59 144.43 85.59 133.80"
/>
<path stroke="#808080" vector-effect="non-scaling-stroke" d="
  M 105.00 153.35
  L 140.46 188.69"
/>
<path stroke="#09610f" vector-effect="non-scaling-stroke" d="
  M 140.46 188.69
  Q 139.59 198.88 141.75 208.71"
/>
<path stroke="#393838" vector-effect="non-scaling-stroke" d="
  M 59.21 201.50
  L 59.41 200.05
  A 0.99 0.97 26.5 0 0 59.12 199.21
  L 41.46 181.78
  A 0.99 0.97 67.8 0 0 40.79 181.49
  L 39.10 181.44"
/>
<path stroke="#393838" vector-effect="non-scaling-stroke" d="
  M 179.85 38.63
  Q 188.80 49.20 199.71 58.25"
/>
<path stroke="#09610f" vector-effect="non-scaling-stroke" d="
  M 209.75 140.54
  Q 198.33 138.19 186.79 139.75"
/>
<path stroke="#808080" vector-effect="non-scaling-stroke" d="
  M 186.79 139.75
  L 152.72 105.61"
/>
<path stroke="#393838" vector-effect="non-scaling-stroke" d="
  M 152.72 105.61
  Q 143.90 94.97 133.09 85.96"
/>
<path stroke="#88e08f" vector-effect="non-scaling-stroke" d="
  M 186.79 139.75
  L 175.39 142.93"
/>
<path stroke="#88e08f" vector-effect="non-scaling-stroke" d="
  M 143.16 176.73
  L 140.46 188.69"
/>
</g>
<path fill="#000000" fill-opacity="0.004" d="
  M 0.00 0.00
  L 256.00 0.00
  L 256.00 256.00
  L 0.00 256.00
  L 0.00 0.00
  Z
  M 145.25 219.44
  Q 145.71 219.33 145.95 219.77
  C 166.34 257.81 218.41 262.54 242.64 225.70
  C 261.41 197.15 250.44 160.26 220.68 144.76
  A 0.33 0.32 -83.3 0 1 220.50 144.52
  L 220.46 144.25
  C 223.82 140.70 228.30 136.92 230.12 132.76
  C 233.67 124.64 230.63 118.76 224.59 112.73
  Q 220.74 108.89 216.98 104.91
  A 1.00 0.99 47.2 0 1 217.03 103.49
  Q 221.61 99.27 225.75 94.63
  C 233.30 86.17 233.13 78.20 225.45 70.02
  Q 220.25 64.48 214.91 59.03
  A 1.01 1.00 -43.4 0 1 214.95 57.59
  Q 220.61 52.44 221.95 50.42
  C 230.41 37.71 216.93 28.79 209.30 21.16
  C 201.21 13.08 194.20 11.19 185.52 19.87
  Q 183.41 21.98 181.24 24.09
  A 1.01 1.00 -45.2 0 1 179.86 24.10
  C 168.97 13.96 159.85 0.02 144.41 13.94
  Q 142.66 15.51 135.99 22.51
  A 1.00 1.00 0.0 0 1 134.57 22.53
  Q 129.99 18.04 125.39 13.57
  C 109.72 -1.64 96.88 17.52 87.05 27.32
  C 81.23 33.11 78.31 39.42 81.64 47.15
  Q 83.13 50.63 89.08 56.48
  Q 103.75 70.93 118.19 85.79
  A 1.00 1.00 0.0 0 1 118.18 87.19
  L 86.52 118.85
  A 1.00 1.00 0.0 0 1 85.11 118.86
  Q 68.27 102.19 51.53 85.44
  C 46.90 80.81 40.16 79.72 34.22 82.09
  Q 30.94 83.40 26.24 88.11
  C 21.23 93.15 11.34 101.07 8.74 107.45
  C 5.07 116.48 9.11 122.26 15.59 128.67
  Q 18.82 131.87 21.89 135.22
  A 1.00 0.99 47.3 0 1 21.84 136.62
  Q 14.49 143.58 12.23 146.25
  C 5.21 154.58 6.80 163.00 13.69 170.40
  Q 18.44 175.51 23.51 180.36
  A 1.01 1.00 44.0 0 1 23.54 181.78
  Q 21.45 183.95 19.31 186.08
  C 5.81 199.52 19.63 209.42 30.47 219.77
  C 37.64 226.62 44.81 227.24 52.15 220.16
  Q 54.60 217.80 57.13 215.40
  A 1.00 0.99 -43.8 0 1 58.53 215.42
  Q 63.44 220.46 68.56 225.27
  C 78.89 234.95 86.83 233.46 96.34 223.98
  Q 99.62 220.72 103.05 217.58
  A 1.00 0.99 45.6 0 1 104.42 217.60
  C 112.45 225.45 119.96 236.31 132.66 230.40
  C 137.16 228.30 141.37 223.26 145.25 219.44
  Z"
/>
<path fill="#ffffff" d="
  M 220.46 144.25
  C 219.63 145.00 211.59 141.41 209.75 140.54
  C 212.99 137.40 218.11 133.20 219.52 129.48
  C 221.56 124.13 218.66 120.73 214.68 116.83
  Q 208.67 110.91 202.80 104.76
  A 1.01 1.00 45.6 0 1 202.81 103.36
  Q 209.13 96.98 215.47 90.64
  C 221.79 84.31 221.10 79.70 214.79 73.43
  Q 207.21 65.88 199.71 58.25
  L 214.97 42.75
  A 1.00 1.00 0.0 0 0 214.96 41.34
  L 197.09 23.47
  A 1.00 0.99 -45.6 0 0 195.66 23.49
  Q 188.22 31.36 179.85 38.63
  Q 172.50 30.98 165.05 23.71
  C 160.30 19.09 155.09 17.86 149.99 22.74
  Q 145.49 27.05 135.98 36.63
  A 1.01 1.00 -45.2 0 1 134.56 36.64
  Q 127.43 29.53 120.27 22.50
  C 110.88 13.26 101.24 27.25 95.44 33.23
  C 90.92 37.89 90.16 43.23 94.94 48.07
  Q 113.83 67.18 133.09 85.96
  Q 131.14 88.56 124.98 94.73
  Q 105.49 114.27 85.59 133.80
  Q 66.13 114.16 46.91 95.07
  C 37.99 86.20 27.47 101.01 22.00 106.73
  C 16.99 111.97 18.18 116.72 23.00 121.76
  Q 29.49 128.54 36.29 135.08
  A 1.00 0.99 -45.2 0 1 36.29 136.51
  Q 29.48 143.21 22.63 150.27
  C 17.06 156.01 18.51 161.18 23.95 166.51
  Q 31.32 173.73 39.10 181.44
  Q 33.03 189.33 25.89 195.79
  Q 24.07 197.44 25.69 199.06
  L 42.55 215.89
  A 1.00 1.00 0.0 0 0 43.97 215.89
  L 58.11 201.79
  A 1.04 1.01 -66.5 0 1 58.82 201.50
  L 59.21 201.50
  Q 66.67 209.44 74.49 217.00
  C 80.92 223.22 86.08 220.13 91.58 214.54
  Q 97.23 208.80 103.05 203.20
  A 1.01 1.00 46.0 0 1 104.47 203.23
  Q 116.87 216.20 120.32 218.94
  C 128.26 225.24 136.81 213.65 141.75 208.71
  Q 144.37 213.77 145.25 219.44
  C 141.37 223.26 137.16 228.30 132.66 230.40
  C 119.96 236.31 112.45 225.45 104.42 217.60
  A 1.00 0.99 45.6 0 0 103.05 217.58
  Q 99.62 220.72 96.34 223.98
  C 86.83 233.46 78.89 234.95 68.56 225.27
  Q 63.44 220.46 58.53 215.42
  A 1.00 0.99 -43.8 0 0 57.13 215.40
  Q 54.60 217.80 52.15 220.16
  C 44.81 227.24 37.64 226.62 30.47 219.77
  C 19.63 209.42 5.81 199.52 19.31 186.08
  Q 21.45 183.95 23.54 181.78
  A 1.01 1.00 44.0 0 0 23.51 180.36
  Q 18.44 175.51 13.69 170.40
  C 6.80 163.00 5.21 154.58 12.23 146.25
  Q 14.49 143.58 21.84 136.62
  A 1.00 0.99 47.3 0 0 21.89 135.22
  Q 18.82 131.87 15.59 128.67
  C 9.11 122.26 5.07 116.48 8.74 107.45
  C 11.34 101.07 21.23 93.15 26.24 88.11
  Q 30.94 83.40 34.22 82.09
  C 40.16 79.72 46.90 80.81 51.53 85.44
  Q 68.27 102.19 85.11 118.86
  A 1.00 1.00 0.0 0 0 86.52 118.85
  L 118.18 87.19
  A 1.00 1.00 0.0 0 0 118.19 85.79
  Q 103.75 70.93 89.08 56.48
  Q 83.13 50.63 81.64 47.15
  C 78.31 39.42 81.23 33.11 87.05 27.32
  C 96.88 17.52 109.72 -1.64 125.39 13.57
  Q 129.99 18.04 134.57 22.53
  A 1.00 1.00 0.0 0 0 135.99 22.51
  Q 142.66 15.51 144.41 13.94
  C 159.85 0.02 168.97 13.96 179.86 24.10
  A 1.01 1.00 -45.2 0 0 181.24 24.09
  Q 183.41 21.98 185.52 19.87
  C 194.20 11.19 201.21 13.08 209.30 21.16
  C 216.93 28.79 230.41 37.71 221.95 50.42
  Q 220.61 52.44 214.95 57.59
  A 1.01 1.00 -43.4 0 0 214.91 59.03
  Q 220.25 64.48 225.45 70.02
  C 233.13 78.20 233.30 86.17 225.75 94.63
  Q 221.61 99.27 217.03 103.49
  A 1.00 0.99 47.2 0 0 216.98 104.91
  Q 220.74 108.89 224.59 112.73
  C 230.63 118.76 233.67 124.64 230.12 132.76
  C 228.30 136.92 223.82 140.70 220.46 144.25
  Z"
/>
<path fill="#000000" d="
  M 179.85 38.63
  Q 188.80 49.20 199.71 58.25
  Q 207.21 65.88 214.79 73.43
  C 221.10 79.70 221.79 84.31 215.47 90.64
  Q 209.13 96.98 202.81 103.36
  A 1.01 1.00 45.6 0 0 202.80 104.76
  Q 208.67 110.91 214.68 116.83
  C 218.66 120.73 221.56 124.13 219.52 129.48
  C 218.11 133.20 212.99 137.40 209.75 140.54
  Q 198.33 138.19 186.79 139.75
  L 152.72 105.61
  Q 143.90 94.97 133.09 85.96
  Q 113.83 67.18 94.94 48.07
  C 90.16 43.23 90.92 37.89 95.44 33.23
  C 101.24 27.25 110.88 13.26 120.27 22.50
  Q 127.43 29.53 134.56 36.64
  A 1.01 1.00 -45.2 0 0 135.98 36.63
  Q 145.49 27.05 149.99 22.74
  C 155.09 17.86 160.30 19.09 165.05 23.71
  Q 172.50 30.98 179.85 38.63
  Z"
/>
<path fill="#716f6f" d="
  M 199.71 58.25
  Q 188.80 49.20 179.85 38.63
  Q 188.22 31.36 195.66 23.49
  A 1.00 0.99 -45.6 0 1 197.09 23.47
  L 214.96 41.34
  A 1.00 1.00 0.0 0 1 214.97 42.75
  L 199.71 58.25
  Z"
/>
<path fill="#716f6f" d="
  M 133.09 85.96
  Q 143.90 94.97 152.72 105.61
  L 105.00 153.35
  Q 94.59 144.43 85.59 133.80
  Q 105.49 114.27 124.98 94.73
  Q 131.14 88.56 133.09 85.96
  Z"
/>
<path fill="#000000" d="
  M 85.59 133.80
  Q 94.59 144.43 105.00 153.35
  L 140.46 188.69
  Q 139.59 198.88 141.75 208.71
  C 136.81 213.65 128.26 225.24 120.32 218.94
  Q 116.87 216.20 104.47 203.23
  A 1.01 1.00 46.0 0 0 103.05 203.20
  Q 97.23 208.80 91.58 214.54
  C 86.08 220.13 80.92 223.22 74.49 217.00
  Q 66.67 209.44 59.21 201.50
  L 59.41 200.05
  A 0.99 0.97 26.5 0 0 59.12 199.21
  L 41.46 181.78
  A 0.99 0.97 67.8 0 0 40.79 181.49
  L 39.10 181.44
  Q 31.32 173.73 23.95 166.51
  C 18.51 161.18 17.06 156.01 22.63 150.27
  Q 29.48 143.21 36.29 136.51
  A 1.00 0.99 -45.2 0 0 36.29 135.08
  Q 29.49 128.54 23.00 121.76
  C 18.18 116.72 16.99 111.97 22.00 106.73
  C 27.47 101.01 37.99 86.20 46.91 95.07
  Q 66.13 114.16 85.59 133.80
  Z"
/>
<path fill="#ffffff" d="
  M 152.72 105.61
  L 186.79 139.75
  L 175.39 142.93
  L 153.30 120.75
  A 1.00 0.99 44.8 0 0 151.89 120.75
  L 120.01 152.28
  A 1.00 1.00 0.0 0 0 120.00 153.70
  L 143.16 176.73
  L 140.46 188.69
  L 105.00 153.35
  L 152.72 105.61
  Z"
/>
<path fill="#000000" fill-opacity="0.004" d="
  M 175.39 142.93
  Q 152.27 153.14 143.16 176.73
  L 120.00 153.70
  A 1.00 1.00 0.0 0 1 120.01 152.28
  L 151.89 120.75
  A 1.00 0.99 44.8 0 1 153.30 120.75
  L 175.39 142.93
  Z"
/>
<path fill="#11c11e" d="
  M 209.75 140.54
  C 211.59 141.41 219.63 145.00 220.46 144.25
  L 220.50 144.52
  A 0.33 0.32 -83.3 0 0 220.68 144.76
  C 250.44 160.26 261.41 197.15 242.64 225.70
  C 218.41 262.54 166.34 257.81 145.95 219.77
  Q 145.71 219.33 145.25 219.44
  Q 144.37 213.77 141.75 208.71
  Q 139.59 198.88 140.46 188.69
  L 143.16 176.73
  Q 152.27 153.14 175.39 142.93
  L 186.79 139.75
  Q 198.33 138.19 209.75 140.54
  Z
  M 188.55 208.46
  A 0.65 0.65 0.0 0 1 187.62 208.59
  L 166.80 192.26
  A 0.65 0.65 0.0 0 0 165.88 192.38
  L 158.35 202.32
  A 0.65 0.65 0.0 0 0 158.46 203.22
  L 190.29 228.10
  A 0.65 0.65 0.0 0 0 191.22 227.97
  L 233.95 170.32
  A 0.65 0.65 0.0 0 0 233.81 169.41
  L 223.80 162.04
  A 0.65 0.65 0.0 0 0 222.89 162.18
  L 188.55 208.46
  Z"
/>
<path fill="#000000" fill-opacity="0.004" d="
  M 188.55 208.46
  L 222.89 162.18
  A 0.65 0.65 0.0 0 1 223.80 162.04
  L 233.81 169.41
  A 0.65 0.65 0.0 0 1 233.95 170.32
  L 191.22 227.97
  A 0.65 0.65 0.0 0 1 190.29 228.10
  L 158.46 203.22
  A 0.65 0.65 0.0 0 1 158.35 202.32
  L 165.88 192.38
  A 0.65 0.65 0.0 0 1 166.80 192.26
  L 187.62 208.59
  A 0.65 0.65 0.0 0 0 188.55 208.46
  Z"
/>
<path fill="#716f6f" d="
  M 39.10 181.44
  L 40.79 181.49
  A 0.99 0.97 67.8 0 1 41.46 181.78
  L 59.12 199.21
  A 0.99 0.97 26.5 0 1 59.41 200.05
  L 59.21 201.50
  L 58.82 201.50
  A 1.04 1.01 -66.5 0 0 58.11 201.79
  L 43.97 215.89
  A 1.00 1.00 0.0 0 1 42.55 215.89
  L 25.69 199.06
  Q 24.07 197.44 25.89 195.79
  Q 33.03 189.33 39.10 181.44
  Z"
/>
</svg>
