<svg version="1.2" xmlns="http://www.w3.org/2000/svg" viewBox="0 0 40 40" width="40" height="40"><style></style><path  d="m18.3 33.9l-3-2.8q-3.7-3.4-6.2-5.9-2.4-2.4-3.9-4.3-1.5-2-2.1-3.6-0.6-1.7-0.6-3.5 0-3.4 2.3-5.8 2.4-2.4 5.8-2.4 2.3 0 4.3 1.1 2 1.1 3.4 3.3 1.6-2.2 3.6-3.3 1.9-1.1 4.1-1.1 3.1 0 5.3 2 2.2 2.1 2.6 5h-2.1q-0.3-2.1-1.9-3.5-1.6-1.4-3.9-1.4-2.1 0-3.8 1.2-1.7 1.2-3 3.6h-1.7q-1.3-2.4-3.1-3.6-1.7-1.2-3.8-1.2-2.6 0-4.3 1.8-1.7 1.7-1.7 4.3 0 1.6 0.6 3 0.6 1.5 2.2 3.5 1.5 1.9 4.2 4.5 2.7 2.5 6.7 6.3 1.3-1.2 2.5-2.3 1.3-1.1 2.3-2l0.3 0.2q0.2 0.2 0.5 0.5 0.2 0.3 0.5 0.5l0.2 0.2q-1 1-2.3 2-1.2 1.1-2.5 2.3zm11.7-5.9v-5.2h-5.2v-2.1h5.2v-5.2h2.1v5.2h5.2v2.1h-5.2v5.2z"/></svg>