<svg version="1.2" xmlns="http://www.w3.org/2000/svg" viewBox="0 0 40 40" width="40" height="40"><style></style><path fill-rule="evenodd" d="m33.3 12l-5.3-5.3-1.3 1.2 5.4 5.4zm-7.8-7.8q1-0.9 2.4-0.9 1.4 0 2.4 1l5.4 5.4q0.9 0.9 0.9 2.3 0 1.4-0.9 2.4l-1.3 1.2 1.3 1.3q0.9 1 0.9 2.4 0 1.4-0.9 2.3l-2.4 2.4q-1 0.9-2.4 0.9-1.4 0-2.4-0.9l-2.5-2.6-4.6 4.5 2.6 2.7q1 0.9 1 2.3 0 1.4-1 2.4l-2.4 2.4q-0.9 0.9-2.4 0.9-1.4 0-2.3-0.9l-12.6-12.6q-1-1-1-2.4 0-1.4 1-2.4l2.4-2.4q0.9-0.9 2.3-0.9 1.4 0 2.4 0.9l2.6 2.7 4.6-4.6-2.6-2.6q-1-1-1-2.4 0-1.4 1-2.3l2.3-2.4q1-1 2.4-1 1.4 0 2.3 1l1.3 1.2zm5.4 17.4l2.3-2.3-12.6-12.7-2.4 2.4zm-11.6 11.7l2.3-2.4-12.5-12.6-2.5 2.4zm-0.2-9.8l4.6-4.5-2.7-2.7-4.5 4.6zm-7 9.7l-5.4-5.3 1.3-1.3-2.4-2.4-1.2 1.3q-1 1-1 2.3 0 1.4 1 2.4l5.3 5.4q1 0.9 2.4 0.9 1.4 0 2.3-0.9l1.3-1.3-2.4-2.3z"/></svg>